<?xml version="1.0" encoding="utf-8"?>
<!-- Generator: Adobe Illustrator 26.0.1, SVG Export Plug-In . SVG Version: 6.00 Build 0)  -->
<svg version="1.1" id="Camada_1" xmlns="http://www.w3.org/2000/svg" xmlns:xlink="http://www.w3.org/1999/xlink" x="0px" y="0px"
	 viewBox="0 0 300 300" style="enable-background:new 0 0 300 300;" xml:space="preserve">
<style type="text/css">
	.st0{fill-rule:evenodd;clip-rule:evenodd;}
	.st1{fill-rule:evenodd;clip-rule:evenodd;fill:#FFFFFF;}
	.st2{fill-rule:evenodd;clip-rule:evenodd;fill:none;stroke:#000000;stroke-width:12;stroke-miterlimit:10;}
</style>
<g>
	<g>
		<g>
			<g>
				<g>
					<path class="st0" d="M281.64,186.14c0,0-11.08,47.77-49.38,57.94c-29.61,7.84-62.16,10.17-62.16,10.17
						c-39.49-9.77-45.48-28.77-45.48-28.77c-19.57-28.72,9.79-42.41,9.79-42.41c40.94-4.86,51.17,13.25,51.17,13.25
						c7.09,10.17,16.43,7.09,16.43,7.09c20.92-2.68,29.81-15.48,31.6-19c1.8-3.57,0-6.65,0-6.65l-31.6-28.18
						C214.04,135.15,174,99.53,174,99.53c-2.9-26.14,5.39-34.87,7.19-36.46c-3.79,2.73-36.4,26.09-40.99,23.61
						c0,0,5.34,6.65-58.76-5.31c0,0-25.71,1.79-65.3,36.66c1.5-0.3,18.02-3.77,23.96-0.84c0,0-12.03,19.74-14.68,32.39l-12.48,7.39
						c0,0,4.44,110.08,115.23,131.31c0,0,54.72,16.77,111.68-24.75c0,0,36.89-20.79,52.02-74.26L281.64,186.14z M67.21,204.3
						c-3.1-44.2,19.57-62.8,19.57-62.8c-12.43,1.34-29.81,19-29.81,19c5.34-19.45,33.8-45.04,33.8-45.04
						c4.04-4.46-23.12-10.62-23.12-10.62c27.61-7.54,53.37,7.04,53.37,7.04c-35.15,12.85-28.91,19.45-28.91,19.45
						c26.26-0.89,28.91,2.68,28.91,2.68c-36,14.58-41.79,43.21-41.79,43.21c32-7.14,37.79,0,37.79,0
						C82.79,177.56,67.21,204.3,67.21,204.3z"/>
				</g>
				<path class="st1" d="M67.66,104.84c27.61-7.54,53.37,7.04,53.37,7.04c-35.15,12.85-28.91,19.45-28.91,19.45
					c26.26-0.89,28.91,2.68,28.91,2.68c-36,14.58-41.79,43.21-41.79,43.21c32-7.14,37.79,0,37.79,0
					c-34.25,0.35-49.83,27.09-49.83,27.09c-3.1-44.2,19.57-62.8,19.57-62.8c-12.43,1.34-29.81,19-29.81,19
					c5.34-19.45,33.8-45.04,33.8-45.04C94.82,110.99,67.66,104.84,67.66,104.84"/>
			</g>
			<path class="st1" d="M164.04,123.75c4.89-1.89,18.65,14.9,15.57,19.89c-1.76,2.86-9.52,2.62-14.24-1.33
				C158.49,136.56,160.64,125.06,164.04,123.75z"/>
		</g>
		<path class="st0" d="M147.3,46.03c0,0-24.91,20.33-32.48,34.04c0,0,5.34,11.49,28.03,0l7.12-3.54
			C149.97,76.53,152.64,60.61,147.3,46.03z"/>
	</g>
	<ellipse class="st2" cx="150.81" cy="150.74" rx="140.58" ry="132.52"/>
</g>
</svg>
